<svg xmlns="http://www.w3.org/2000/svg" viewBox="0 0 1196.82 1322.02"><g id="a411c670-53d7-494d-ac5a-6ad057889f8b" data-name="Camada 2"><g id="b5547d83-8065-44b8-a992-5fb1e877b89b" data-name="Camada 1"><circle cx="598.41" cy="724.15" r="386.45" style="fill:none;stroke:#ff8100;stroke-miterlimit:10;stroke-width:44px"/><circle cx="598.41" cy="726.05" r="67.45" style="fill:#ff8100;stroke:#ff8100;stroke-miterlimit:10"/><rect x="764.16" y="120.06" width="133.58" height="91.46" rx="13.55" transform="translate(130.03 -310.32) rotate(22.9)" style="fill:#ff8100;stroke:#ff8100;stroke-miterlimit:10"/><rect x="298.8" y="120.06" width="133.58" height="91.46" rx="13.5" transform="translate(-35.26 144.27) rotate(-21.32)" style="fill:#ff8100;stroke:#ff8100;stroke-miterlimit:10"/><rect x="536.4" y="60.54" width="124.01" height="113.57" style="fill:#ff8100;stroke:#ff8100;stroke-miterlimit:10"/><rect x="567.74" y="401.7" width="61.34" height="340.18" style="fill:#ff8100;stroke:#ff8100;stroke-miterlimit:10"/><rect x="482.15" y="663.92" width="61.34" height="198.6" transform="translate(1054.88 20.48) rotate(70.02)" style="fill:#ff8100;stroke:#ff8100;stroke-miterlimit:10"/><rect x="471.42" y="0.5" width="253.97" height="90.06" rx="4.01" style="fill:#ff8100;stroke:#ff8100;stroke-miterlimit:10"/><path d="M598.41,125.7C268.19,125.7.5,393.39.5,723.61s267.69,597.91,597.91,597.91,597.91-267.7,597.91-597.91S928.62,125.7,598.41,125.7Zm0,1035.12c-241.47,0-437.21-195.75-437.21-437.21S356.94,286.4,598.41,286.4s437.21,195.74,437.21,437.21S839.87,1160.82,598.41,1160.82Z" style="fill:#ff8100;stroke:#ff8100;stroke-miterlimit:10"/></g></g></svg>