<svg xmlns="http://www.w3.org/2000/svg" viewBox="0 0 1195.82 1321.02"><g id="a026d1b0-bd4e-4918-afbb-f3911faa01c6" data-name="Camada 2"><g id="b333a3b6-7e80-4b5d-bc69-20f7421bacf5" data-name="Camada 1"><circle cx="597.91" cy="723.65" r="386.45" style="fill:none;stroke:#fff;stroke-miterlimit:10;stroke-width:44px"/><path d="M628.58,665.48V401.2H567.24V665.48a67.41,67.41,0,0,0-36.73,58l-122,44.35,21,57.64L557,779.13a67.45,67.45,0,1,0,71.63-113.65Z" style="fill:#fff"/><path d="M888.18,200.27l16.32-38.63a13.58,13.58,0,0,0-7.21-17.75l-98.08-41.44a13.59,13.59,0,0,0-17.76,7.21l-16.56,39.18a594.58,594.58,0,0,0-105-20.46V90.06h61a4,4,0,0,0,4-4V4a4,4,0,0,0-4-4H474.93a4,4,0,0,0-4,4v82a4,4,0,0,0,4,4h61v38.32A594.42,594.42,0,0,0,430.43,149l-14.84-38a13.55,13.55,0,0,0-17.48-7.67l-99.29,38.76a13.54,13.54,0,0,0-7.67,17.48l16,41C123.93,302.7,0,498.43,0,723.11,0,1053.32,267.69,1321,597.91,1321s597.91-267.7,597.91-597.91C1195.82,498.23,1071.67,302.36,888.18,200.27ZM597.91,1160.32c-241.47,0-437.21-195.75-437.21-437.21S356.44,285.9,597.91,285.9s437.21,195.74,437.21,437.21S839.37,1160.32,597.91,1160.32Z" style="fill:#fff"/></g></g></svg>