<svg xmlns="http://www.w3.org/2000/svg" viewBox="0 0 1647.41 330.73"><g id="b2147812-14bb-49cc-92d0-b2410be6f20c" data-name="Camada 2"><g id="becb01da-d575-45b2-9f3d-d99a227542d5" data-name="Camada 1"><path d="M506.56,297.87h-51.4V138h-60V98H566.53v40h-60Z" style="fill:#fff"/><path d="M646.49,152.23V297.87h-50V190.78H575.1V152.23Zm-50-57.11h50v40h-50Z" style="fill:#fff"/><path d="M776.42,143.66q23.13,0,35.7,17.14a95.2,95.2,0,0,1,28.41-13q15.29-4.12,27.28-4.14h2.85q19.43,0,31.13,11.71T913.5,186.5V297.87h-50V195.07a9.76,9.76,0,0,0-10-10H852.1q-12.86,0-32.84,5.71V297.87h-50V195.07a9.76,9.76,0,0,0-10-10h-1.43q-12.86,0-32.84,5.71V297.87H675V146.52h44.27l2.85,14.28a102.62,102.62,0,0,1,27.56-13q14.14-4.12,23.85-4.14Z" style="fill:#fff"/><path d="M1079.13,295q-55.12,5.7-100,5.71-19.42,0-31.13-11.71t-11.71-31.13V189.36q0-21.42,12.14-33.56T982,143.66h57.12q21.42,0,33.55,12.14t12.14,33.56v52.83H986.32v11.42a9.74,9.74,0,0,0,10,10q28.28,0,82.82-4.28ZM997.74,179.36q-11.43,0-11.42,11.42v15.71h48.54V190.78q0-11.42-11.42-11.42Z" style="fill:#fff"/><path d="M1104.83,255h51.4v42.83h-51.4Z" style="fill:lime"/><path d="M1333.28,255q0,21.42-12.13,33.55t-33.56,12.14h-65.68q-21.42,0-33.55-12.14T1176.22,255V189.36q0-21.42,12.14-33.56t33.55-12.14h65.68q21.42,0,33.56,12.14t12.13,33.56Zm-50-61.4q0-11.41-11.42-11.42h-34.27q-11.43,0-11.43,11.42v57.11q0,11.43,11.43,11.43h34.27q11.41,0,11.42-11.43Z" style="fill:#fff"/><path d="M1429,259.32q15.13,0,34.27-5.71V146.52h50V297.87h-44.26l-2.86-14.28a102,102,0,0,1-27.55,13q-14.14,4.14-23.85,4.14h-12.85q-19.42,0-31.13-11.71T1359,257.89V146.52h50V249.33a9.76,9.76,0,0,0,10,10Z" style="fill:#fff"/><path d="M1647.41,297.87a530.12,530.12,0,0,1-54.26,2.86q-19.43,0-31.12-11.71t-11.71-31.13V185.07h-17.14V146.52h17.14l5.71-34.27h44.26v34.27H1636v38.55h-35.7v65.68a9.77,9.77,0,0,0,10,10h37.12Z" style="fill:#fff"/><circle cx="149.69" cy="181.17" r="95.28" style="fill:none;stroke:#fff;stroke-miterlimit:10;stroke-width:10px"/><circle cx="149.69" cy="181.65" r="16.89" style="fill:#fff"/><rect x="191.19" y="29.93" width="33.44" height="22.9" rx="3.45" transform="translate(32.5 -77.65) rotate(22.9)" style="fill:#fff"/><rect x="74.68" y="29.93" width="33.44" height="22.9" rx="3.45" transform="translate(-8.79 36.07) rotate(-21.32)" style="fill:#fff"/><rect x="134.17" y="15.03" width="31.05" height="28.43" style="fill:#fff"/><rect x="142.01" y="100.44" width="15.36" height="85.17" style="fill:#fff"/><rect x="120.59" y="166.09" width="15.36" height="49.72" transform="translate(263.9 5.16) rotate(70.02)" style="fill:#fff"/><rect x="117.9" width="63.58" height="22.55" rx="4.01" style="fill:#fff"/><path d="M149.69,31.34A149.7,149.7,0,1,0,299.38,181,149.69,149.69,0,0,0,149.69,31.34Zm0,259.16A109.46,109.46,0,1,1,259.15,181,109.46,109.46,0,0,1,149.69,290.5Z" style="fill:#fff"/></g></g></svg>